# xmcd CD database file
#
# Track frame offsets:
#	150
#	17007
#	31903
#	47185
#	64551
#	80382
#	96451
#	120671
#	137197
#	158493
#	176666
#	194832
#
# Disc length: 2867 seconds
#
# Revision: 1
# Processed by: cddbd v1.4PL0 Copyright (c) Steve Scherf et al.
# Submitted via: CDex 1.50Beta7
#
DISCID=a00b310c
DTITLE=Miles Davis - Hall of Fame - Tempus Fugit
DYEAR=2001
DGENRE=Jazz
TTITLE0=Ray's Idea (Brown-Fuller)
TTITLE1=Kelo (Johnson)
TTITLE2=Enigma (Johnson)
TTITLE3=Tempus Fugit (Powell)
TTITLE4=I Waited For You (Fuller-Gillespie)
TTITLE5=C.T.A. (Heath)
TTITLE6=Well You Needn't (Davis)
TTITLE7=Take Off (Davis)
TTITLE8=Weirdo (Davis)
TTITLE9=Lazy Susan (Davis)
TTITLE10=It Never Entered My Mind (Rodgers-Hart)
TTITLE11=The Leap (Davis)
EXTD=YEAR: 2001
EXTT0=
EXTT1=
EXTT2=
EXTT3=
EXTT4=
EXTT5=
EXTT6=
EXTT7=
EXTT8=
EXTT9=
EXTT10=
EXTT11=
PLAYORDER=
